<svg width="111" height="29" viewBox="0 0 111 29" fill="none" xmlns="http://www.w3.org/2000/svg">
<g clip-path="url(#clip0_3_13)">
<path d="M0.494318 5.54545H4.62784L8.60795 13.0625H8.77841L12.7585 5.54545H16.892L10.5256 16.8295V23H6.8608V16.8295L0.494318 5.54545ZM20.0412 23.2472C19.206 23.2472 18.4616 23.1023 17.8082 22.8125C17.1548 22.517 16.6378 22.0824 16.2571 21.5085C15.8821 20.929 15.6946 20.2074 15.6946 19.3438C15.6946 18.6165 15.8281 18.0057 16.0952 17.5114C16.3622 17.017 16.7259 16.6193 17.1861 16.3182C17.6463 16.017 18.169 15.7898 18.7543 15.6364C19.3452 15.483 19.9645 15.375 20.6122 15.3125C21.3736 15.233 21.9872 15.1591 22.4531 15.0909C22.919 15.017 23.2571 14.9091 23.4673 14.767C23.6776 14.625 23.7827 14.4148 23.7827 14.1364V14.0852C23.7827 13.5455 23.6122 13.1278 23.2713 12.8324C22.9361 12.5369 22.4588 12.3892 21.8395 12.3892C21.1861 12.3892 20.6662 12.5341 20.2798 12.8239C19.8935 13.108 19.6378 13.4659 19.5128 13.8977L16.1548 13.625C16.3253 12.8295 16.6605 12.142 17.1605 11.5625C17.6605 10.9773 18.3054 10.5284 19.0952 10.2159C19.8906 9.89773 20.8111 9.73864 21.8565 9.73864C22.5838 9.73864 23.2798 9.82386 23.9446 9.99432C24.6151 10.1648 25.2088 10.429 25.7259 10.7869C26.2486 11.1449 26.6605 11.6051 26.9616 12.1676C27.2628 12.7244 27.4134 13.392 27.4134 14.1705V23H23.9702V21.1847H23.8679C23.6577 21.5938 23.3764 21.9545 23.0241 22.267C22.6719 22.5739 22.2486 22.8153 21.7543 22.9915C21.2599 23.1619 20.6889 23.2472 20.0412 23.2472ZM21.081 20.7415C21.6151 20.7415 22.0866 20.6364 22.4957 20.4261C22.9048 20.2102 23.2259 19.9205 23.4588 19.5568C23.6918 19.1932 23.8082 18.7812 23.8082 18.321V16.9318C23.6946 17.0057 23.5384 17.0739 23.3395 17.1364C23.1463 17.1932 22.9276 17.2472 22.6832 17.2983C22.4389 17.3437 22.1946 17.3864 21.9503 17.4261C21.706 17.4602 21.4844 17.4915 21.2855 17.5199C20.8594 17.5824 20.4872 17.6818 20.169 17.8182C19.8509 17.9545 19.6037 18.1392 19.4276 18.3722C19.2514 18.5994 19.1634 18.8835 19.1634 19.2244C19.1634 19.7188 19.3423 20.0966 19.7003 20.358C20.0639 20.6136 20.5241 20.7415 21.081 20.7415ZM33.8608 15.4318V23H30.2301V9.90909H33.6903V12.2188H33.8438C34.1335 11.4574 34.6193 10.8551 35.3011 10.4119C35.983 9.96307 36.8097 9.73864 37.7812 9.73864C38.6903 9.73864 39.483 9.9375 40.1591 10.3352C40.8352 10.733 41.3608 11.3011 41.7358 12.0398C42.1108 12.7727 42.2983 13.6477 42.2983 14.6648V23H38.6676V15.3125C38.6733 14.5114 38.4688 13.8864 38.054 13.4375C37.6392 12.983 37.0682 12.7557 36.3409 12.7557C35.8523 12.7557 35.4205 12.8608 35.0455 13.071C34.6761 13.2812 34.3864 13.5881 34.1761 13.9915C33.9716 14.3892 33.8665 14.8693 33.8608 15.4318ZM53.5547 17.4261V9.90909H57.1854V23H53.6996V20.6222H53.5632C53.2678 21.3892 52.7763 22.0057 52.0888 22.4716C51.407 22.9375 50.5746 23.1705 49.5916 23.1705C48.7166 23.1705 47.9467 22.9716 47.282 22.5739C46.6172 22.1761 46.0973 21.6108 45.7223 20.8778C45.353 20.1449 45.1655 19.267 45.1598 18.2443V9.90909H48.7905V17.5966C48.7962 18.3693 49.0036 18.9801 49.4126 19.429C49.8217 19.8778 50.37 20.1023 51.0575 20.1023C51.495 20.1023 51.9041 20.0028 52.2848 19.804C52.6655 19.5994 52.9723 19.2983 53.2053 18.9006C53.4439 18.5028 53.5604 18.0114 53.5547 17.4261ZM63.8224 23.2472C62.9872 23.2472 62.2429 23.1023 61.5895 22.8125C60.9361 22.517 60.419 22.0824 60.0384 21.5085C59.6634 20.929 59.4759 20.2074 59.4759 19.3438C59.4759 18.6165 59.6094 18.0057 59.8764 17.5114C60.1435 17.017 60.5071 16.6193 60.9673 16.3182C61.4276 16.017 61.9503 15.7898 62.5355 15.6364C63.1264 15.483 63.7457 15.375 64.3935 15.3125C65.1548 15.233 65.7685 15.1591 66.2344 15.0909C66.7003 15.017 67.0384 14.9091 67.2486 14.767C67.4588 14.625 67.5639 14.4148 67.5639 14.1364V14.0852C67.5639 13.5455 67.3935 13.1278 67.0526 12.8324C66.7173 12.5369 66.2401 12.3892 65.6207 12.3892C64.9673 12.3892 64.4474 12.5341 64.0611 12.8239C63.6747 13.108 63.419 13.4659 63.294 13.8977L59.9361 13.625C60.1065 12.8295 60.4418 12.142 60.9418 11.5625C61.4418 10.9773 62.0866 10.5284 62.8764 10.2159C63.6719 9.89773 64.5923 9.73864 65.6378 9.73864C66.3651 9.73864 67.0611 9.82386 67.7259 9.99432C68.3963 10.1648 68.9901 10.429 69.5071 10.7869C70.0298 11.1449 70.4418 11.6051 70.7429 12.1676C71.044 12.7244 71.1946 13.392 71.1946 14.1705V23H67.7514V21.1847H67.6491C67.4389 21.5938 67.1577 21.9545 66.8054 22.267C66.4531 22.5739 66.0298 22.8153 65.5355 22.9915C65.0412 23.1619 64.4702 23.2472 63.8224 23.2472ZM64.8622 20.7415C65.3963 20.7415 65.8679 20.6364 66.277 20.4261C66.6861 20.2102 67.0071 19.9205 67.2401 19.5568C67.473 19.1932 67.5895 18.7812 67.5895 18.321V16.9318C67.4759 17.0057 67.3196 17.0739 67.1207 17.1364C66.9276 17.1932 66.7088 17.2472 66.4645 17.2983C66.2202 17.3437 65.9759 17.3864 65.7315 17.4261C65.4872 17.4602 65.2656 17.4915 65.0668 17.5199C64.6406 17.5824 64.2685 17.6818 63.9503 17.8182C63.6321 17.9545 63.3849 18.1392 63.2088 18.3722C63.0327 18.5994 62.9446 18.8835 62.9446 19.2244C62.9446 19.7188 63.1236 20.0966 63.4815 20.358C63.8452 20.6136 64.3054 20.7415 64.8622 20.7415ZM74.0114 23V9.90909H77.5312V12.1932H77.6676C77.9063 11.3807 78.3068 10.767 78.8693 10.3523C79.4318 9.93182 80.0795 9.72159 80.8125 9.72159C80.9943 9.72159 81.1903 9.73295 81.4006 9.75568C81.6108 9.77841 81.7955 9.80966 81.9545 9.84943V13.071C81.7841 13.0199 81.5483 12.9744 81.2472 12.9347C80.946 12.8949 80.6705 12.875 80.4205 12.875C79.8864 12.875 79.4091 12.9915 78.9886 13.2244C78.5739 13.4517 78.2443 13.7699 78 14.179C77.7614 14.5881 77.642 15.0597 77.642 15.5938V23H74.0114Z" fill="#0C1024"/>
<path d="M83.8999 23V5.54545H95.4567V8.58807H87.5902V12.7472H94.6896V15.7898H87.5902V23H83.8999ZM101.44 23.2472C100.604 23.2472 99.8601 23.1023 99.2067 22.8125C98.5533 22.517 98.0362 22.0824 97.6555 21.5085C97.2805 20.929 97.093 20.2074 97.093 19.3438C97.093 18.6165 97.2266 18.0057 97.4936 17.5114C97.7607 17.017 98.1243 16.6193 98.5845 16.3182C99.0447 16.017 99.5675 15.7898 100.153 15.6364C100.744 15.483 101.363 15.375 102.011 15.3125C102.772 15.233 103.386 15.1591 103.852 15.0909C104.317 15.017 104.656 14.9091 104.866 14.767C105.076 14.625 105.181 14.4148 105.181 14.1364V14.0852C105.181 13.5455 105.011 13.1278 104.67 12.8324C104.335 12.5369 103.857 12.3892 103.238 12.3892C102.585 12.3892 102.065 12.5341 101.678 12.8239C101.292 13.108 101.036 13.4659 100.911 13.8977L97.5533 13.625C97.7237 12.8295 98.0589 12.142 98.5589 11.5625C99.0589 10.9773 99.7038 10.5284 100.494 10.2159C101.289 9.89773 102.21 9.73864 103.255 9.73864C103.982 9.73864 104.678 9.82386 105.343 9.99432C106.013 10.1648 106.607 10.429 107.124 10.7869C107.647 11.1449 108.059 11.6051 108.36 12.1676C108.661 12.7244 108.812 13.392 108.812 14.1705V23H105.369V21.1847H105.266C105.056 21.5938 104.775 21.9545 104.423 22.267C104.07 22.5739 103.647 22.8153 103.153 22.9915C102.658 23.1619 102.087 23.2472 101.44 23.2472ZM102.479 20.7415C103.013 20.7415 103.485 20.6364 103.894 20.4261C104.303 20.2102 104.624 19.9205 104.857 19.5568C105.09 19.1932 105.207 18.7812 105.207 18.321V16.9318C105.093 17.0057 104.937 17.0739 104.738 17.1364C104.545 17.1932 104.326 17.2472 104.082 17.2983C103.837 17.3437 103.593 17.3864 103.349 17.4261C103.104 17.4602 102.883 17.4915 102.684 17.5199C102.258 17.5824 101.886 17.6818 101.567 17.8182C101.249 17.9545 101.002 18.1392 100.826 18.3722C100.65 18.5994 100.562 18.8835 100.562 19.2244C100.562 19.7188 100.741 20.0966 101.099 20.358C101.462 20.6136 101.923 20.7415 102.479 20.7415Z" fill="url(#paint0_linear_3_13)"/>
</g>
<defs>
<linearGradient id="paint0_linear_3_13" x1="73.3393" y1="10.6333" x2="89.6328" y2="34.2166" gradientUnits="userSpaceOnUse">
<stop stop-color="#CCE0FF"/>
<stop offset="1" stop-color="#004CBE"/>
</linearGradient>
<clipPath id="clip0_3_13">
<rect width="111" height="29" fill="white"/>
</clipPath>
</defs>
</svg>
